<svg width="176" height="176" viewBox="0 0 176 176" fill="none" xmlns="http://www.w3.org/2000/svg">
<mask id="mask0_61_100" style="mask-type:luminance" maskUnits="userSpaceOnUse" x="0" y="0" width="176" height="176">
<path d="M176 0H0V176H176V0Z" fill="white"/>
</mask>
<g mask="url(#mask0_61_100)">
<mask id="mask1_61_100" style="mask-type:alpha" maskUnits="userSpaceOnUse" x="9" y="4" width="159" height="160">
<path d="M88.5466 163.71C132.418 163.71 167.983 128.145 167.983 84.2739C167.983 40.4023 132.418 4.8374 88.5466 4.8374C44.675 4.8374 9.11008 40.4023 9.11008 84.2739C9.11008 128.145 44.675 163.71 88.5466 163.71Z" fill="#D9D9D9"/>
</mask>
<g mask="url(#mask1_61_100)">
<path d="M163.661 122.293L136.131 106.373C122.923 98.7357 106.403 108.266 106.403 123.523V167.171C106.403 167.626 106.418 168.077 106.447 168.522C94.0728 171.65 80.8718 172.681 64.0842 172.391C87.0616 149.621 96.4455 135.65 98.218 98.5314C146.701 96.2375 167.867 81.4318 185.592 70.0669L163.661 122.293Z" fill="#E0DEF4"/>
<path d="M14.7232 59.0699C17.1614 59.8329 19.3322 61.1662 21.0866 62.9133C18.8996 69.7533 17.7188 77.0431 17.7188 84.6088C17.7189 123.911 49.5796 155.772 88.8819 155.772C94.928 155.772 100.798 155.017 106.403 153.598V167.17C106.403 167.427 106.408 167.682 106.417 167.935C100.758 169.12 94.8928 169.743 88.8819 169.743L88.3311 169.742C41.7495 169.447 4.04409 131.741 3.74912 85.1594L3.74728 84.6088C3.74728 74.9678 5.35024 65.7011 8.3036 57.0605L14.7232 59.0699ZM89.4322 -0.523804C136.197 -0.227663 174.016 37.7741 174.016 84.6088L174.015 85.1594C173.928 98.7685 170.648 111.62 164.887 123.002L152.767 115.993C157.427 106.526 160.045 95.8735 160.045 84.6088C160.045 45.3068 128.184 13.446 88.8819 13.4459C80.0039 13.4459 71.5058 15.0716 63.6688 18.0415C61.8304 16.1561 60.4681 13.8079 59.7626 11.1839L58.1511 5.18961C67.6834 1.49857 78.0462 -0.525635 88.8819 -0.525635L89.4322 -0.523804Z" fill="#E0DEF4"/>
<path d="M58.6578 7.0752C72.1639 4.00427 82.9304 9.61804 99.6779 13.5549C111.877 18.0383 112.013 92.1561 97.1758 100.304C78.0793 110.79 1.47759 109.966 -12.6159 69.8585C-10.4865 58.5599 -8.92348 54.1716 -4.57284 50.0643C-2.75316 52.4752 -0.138833 54.4185 3.27048 55.4855L14.7232 59.0702C19.8303 60.6688 23.7656 64.7674 25.1551 69.9352L27.3555 78.1192C31.5063 93.5578 53.4112 93.5578 57.5622 78.1192L59.7626 69.9352C61.1521 64.7674 65.0875 60.6688 70.1944 59.0702L81.6473 55.4855C96.2714 50.9083 96.2714 30.2112 81.6473 25.6339L70.1944 22.0493C65.0872 20.4508 61.1521 16.3521 59.7626 11.1843L58.6578 7.0752Z" fill="#E0DEF4"/>
</g>
<path d="M37.1104 4.49397C38.6602 -1.26946 46.8375 -1.26948 48.3873 4.49395L53.8258 24.7177C54.3446 26.647 55.8139 28.1772 57.7205 28.7738L77.9086 35.0913C83.3687 36.8 83.3687 44.5273 77.9086 46.236L57.7205 52.5534C55.8139 53.15 54.3446 54.6802 53.8258 56.6096L48.3873 76.8333C46.8375 82.5967 38.6602 82.5967 37.1104 76.8333L31.6719 56.6096C31.153 54.6802 29.6837 53.15 27.7769 52.5534L7.58907 46.236C2.12896 44.5273 2.12896 36.8 7.58909 35.0913L27.7769 28.7738C29.6837 28.1772 31.153 26.647 31.6719 24.7177L37.1104 4.49397Z" fill="#C4A7E7"/>
<path d="M168.076 137.817C173.915 141.188 173.915 149.616 168.076 152.987L130.625 174.61C124.786 177.981 117.487 173.767 117.487 167.025V123.78C117.487 117.038 124.786 112.824 130.625 116.195L168.076 137.817Z" fill="#C4A7E7"/>
</g>
</svg>
